<svg width="24" height="24" viewBox="0 0 24 24" fill="none" xmlns="http://www.w3.org/2000/svg" aria-hidden="true" class="styles__StyledInlineSvg-sc-12l8vvi-0 jFpckg"><path fill-rule="evenodd" clip-rule="evenodd" d="M11 3C11 2.44772 11.4477 2 12 2C12.5523 2 13 2.44772 13 3V4.08296C15.8377 4.55903 18 7.027 18 10V16H19C19.5523 16 20 16.4477 20 17C20 17.5523 19.5523 18 19 18C14.3333 18 9.66667 18 5 18C4.44772 18 4 17.5523 4 17C4 16.4477 4.44772 16 5 16H6.00001V10C6.00001 7.02701 8.16229 4.55904 11 4.08296V3ZM8.00001 16H16V10C16 7.79086 14.2092 6 12 6C9.79087 6 8.00001 7.79086 8.00001 10V16Z" fill="currentColor"></path><path d="M14.5 19.5C14.5 20.8807 13.3807 22 12 22C10.6193 22 9.5 20.8807 9.5 19.5H14.5Z" fill="currentColor"></path></svg>