<svg width="16" height="16" viewBox="0 0 16 16" fill="none" xmlns="http://www.w3.org/2000/svg" aria-hidden="true" class="styles__StyledInlineSvg-sc-12l8vvi-0 djCUZq"><path fill-rule="evenodd" clip-rule="evenodd" d="M1.21115 2.35998C2.01809 1.49718 3.1638 1 4.5 1C5.71345 1 6.65797 1.85037 7.26322 2.51005C7.53366 2.8048 7.78231 3.11431 8 3.3941C8.21769 3.11431 8.46634 2.8048 8.73678 2.51005C9.34203 1.85037 10.2866 1 11.5 1C12.8362 1 13.9819 1.49718 14.7889 2.35998C15.5882 3.21465 16 4.36783 16 5.59673C16 7.18405 15.2265 8.53401 14.112 9.80779C13.0224 11.0531 11.4886 12.3552 9.73966 13.8399L9.66219 13.9057L9.65999 13.9075L8.64499 14.7642C8.27139 15.0795 7.72457 15.0785 7.35215 14.7618L6.33862 13.8998L6.27811 13.8485C4.52187 12.3608 2.98153 11.0559 1.88825 9.80723C0.77355 8.53406 0 7.18407 0 5.59673C0 4.36783 0.411805 3.21465 1.21115 2.35998Z" fill="#EB1700"></path></svg>