<svg width="16" height="16" viewBox="0 0 16 16" fill="none" xmlns="http://www.w3.org/2000/svg" aria-hidden="true" class="styles__StyledInlineSvg-sc-12l8vvi-0 djCUZq"><path fill-rule="evenodd" clip-rule="evenodd" d="M8 0C8.39294 0 8.74946 0.230121 8.91127 0.588193L10.6268 4.38448L14.7674 4.84295C15.158 4.8862 15.487 5.15416 15.6085 5.52786C15.7299 5.90157 15.6212 6.31175 15.3306 6.5763L12.2503 9.381L13.0938 13.4606C13.1733 13.8454 13.0202 14.2412 12.7023 14.4721C12.3844 14.7031 11.9607 14.7265 11.6193 14.5319L8 12.469L4.38068 14.5319C4.0393 14.7265 3.61561 14.7031 3.29772 14.4721C2.97982 14.2412 2.82666 13.8454 2.90622 13.4606L3.7497 9.381L0.669354 6.5763C0.37881 6.31175 0.270123 5.90157 0.391547 5.52786C0.512972 5.15416 0.842 4.8862 1.23255 4.84295L5.37317 4.38448L7.08873 0.588193C7.25054 0.230121 7.60706 0 8 0ZM8 3.42832L6.961 5.72749C6.81551 6.04944 6.51093 6.27073 6.15978 6.30961L3.65208 6.58727L5.51764 8.2859C5.77888 8.52376 5.89522 8.88181 5.82368 9.22779L5.31284 11.6986L7.50482 10.4492C7.81176 10.2743 8.18824 10.2743 8.49518 10.4492L10.6872 11.6986L10.1763 9.22779C10.1048 8.88181 10.2211 8.52376 10.4824 8.2859L12.3479 6.58727L9.84022 6.30961C9.48907 6.27073 9.18449 6.04944 9.039 5.72749L8 3.42832Z" fill="#494949"></path></svg>