<svg width="16" height="16" viewBox="0 0 16 16" fill="none" xmlns="http://www.w3.org/2000/svg" aria-hidden="true" class="styles__StyledInlineSvg-sc-12l8vvi-0 djCUZq sc-38b5256b-10 bMAVjB"><path d="M15.1605 5.64505C14.4627 4.3288 13.0989 3.52002 11.6241 3.52002H0.380597C0.17444 3.52002 0 3.69446 0 3.91648C0 4.01163 0.0475747 4.10678 0.111008 4.18607L2.55317 6.64413C2.77519 6.86614 3.06064 6.99301 3.36194 6.97715H11.2752C11.8461 6.97715 12.306 7.42119 12.306 7.99209C12.306 8.56299 11.8619 9.02289 11.2911 9.02289H5.85168C5.64553 9.02289 5.47109 9.19733 5.47109 9.41935C5.47109 9.5145 5.51866 9.60965 5.58209 9.68894L8.02426 12.147C8.24628 12.369 8.53172 12.48 8.84889 12.48H11.3228C14.5261 12.48 16.9524 9.0546 15.1605 5.64505Z" fill="#EB1700"></path></svg>