<svg width="32" height="32" viewBox="0 0 24 24" fill="none" xmlns="http://www.w3.org/2000/svg"><path fill-rule="evenodd" clip-rule="evenodd" d="M12 2C12.3929 2 12.7494 2.23012 12.9112 2.58819L15.184 7.61753L20.6695 8.22492C21.0601 8.26817 21.3891 8.53612 21.5105 8.90983C21.632 9.28354 21.5233 9.69372 21.2327 9.95826L17.1519 13.674L18.2693 19.0787C18.3489 19.4635 18.1957 19.8592 17.8778 20.0902C17.5599 20.3211 17.1362 20.3445 16.7949 20.1499L12 17.417L7.20509 20.1499C6.86371 20.3445 6.44001 20.3211 6.12212 20.0902C5.80423 19.8592 5.65106 19.4635 5.73062 19.0787L6.84808 13.674L2.76722 9.95826C2.47667 9.69372 2.36799 9.28354 2.48941 8.90983C2.61083 8.53612 2.93986 8.26817 3.33041 8.22492L8.81593 7.61753L11.0887 2.58819C11.2505 2.23012 11.607 2 12 2ZM12 5.42832L10.4038 8.96054C10.2583 9.28249 9.95369 9.50378 9.60254 9.54266L5.74994 9.96924L8.61602 12.5789C8.87725 12.8167 8.99359 13.1748 8.92205 13.5207L8.13724 17.3166L11.5048 15.3972C11.8117 15.2223 12.1882 15.2223 12.4952 15.3972L15.8627 17.3166L15.0779 13.5207C15.0064 13.1748 15.1227 12.8167 15.3839 12.5789L18.25 9.96924L14.3974 9.54266C14.0463 9.50378 13.7417 9.28249 13.5962 8.96054L12 5.42832Z" fill="#B2B2B2"></path></svg>